<?xml version="1.0" standalone="no"?>
<!DOCTYPE svg PUBLIC "-//W3C//DTD SVG 20010904//EN"
 "http://www.w3.org/TR/2001/REC-SVG-20010904/DTD/svg10.dtd">
<svg version="1.0" xmlns="http://www.w3.org/2000/svg"
 width="311.000000pt" height="311.000000pt" viewBox="0 0 311.000000 311.000000"
 preserveAspectRatio="xMidYMid meet">
<metadata>
Created by potrace 1.11, written by Peter Selinger 2001-2013
</metadata>
<g transform="translate(0.000000,311.000000) scale(0.100000,-0.100000)"
fill="#000000" stroke="none">
<path d="M2946 1830 c-14 -22 -25 -40 -23 -40 2 0 18 18 36 40 17 22 28 40 23
40 -5 0 -21 -18 -36 -40z"/>
<path d="M155 1768 c-30 -16 -45 -39 -45 -69 0 -47 11 -60 76 -90 53 -23 64
-32 64 -53 0 -37 -65 -51 -107 -21 -18 13 -22 12 -38 -5 -16 -18 -15 -19 9
-35 63 -42 166 -24 187 32 22 57 -4 95 -84 124 -47 16 -61 32 -52 58 8 26 49
35 84 17 29 -15 51 -7 51 19 0 30 -103 46 -145 23z"/>
<path d="M450 1767 c0 -2 -29 -67 -64 -145 l-65 -142 30 0 c25 0 33 6 45 35
l14 35 69 0 70 0 12 -35 c11 -29 18 -35 41 -35 15 0 28 3 28 6 0 3 -28 68 -61
145 -58 132 -63 139 -90 139 -16 0 -29 -1 -29 -3z m56 -120 l22 -52 -45 -3
c-25 -2 -47 -1 -49 1 -6 5 37 107 45 107 3 0 16 -24 27 -53z"/>
<path d="M670 1625 l0 -145 30 0 30 0 0 145 0 145 -30 0 -30 0 0 -145z"/>
<path d="M800 1625 l0 -145 25 0 c24 0 24 1 27 109 l3 110 68 -110 c65 -104
70 -109 103 -109 l34 0 0 145 0 145 -30 0 -30 0 0 -107 0 -107 -66 107 c-63
102 -67 107 -100 107 l-34 0 0 -145z"/>
<path d="M1090 1750 c0 -17 7 -20 50 -20 l50 0 0 -125 0 -125 25 0 25 0 0 125
0 125 50 0 c43 0 50 3 50 20 0 19 -7 20 -125 20 -118 0 -125 -1 -125 -20z"/>
<path d="M1700 1700 l0 -70 -90 0 -90 0 0 65 c0 37 -4 65 -10 65 -6 0 -10 -53
-10 -140 0 -87 4 -140 10 -140 6 0 10 30 10 70 l0 70 90 0 89 0 4 -72 c1 -40
4 -7 5 75 1 81 0 147 -3 147 -3 0 -5 -31 -5 -70z"/>
<path d="M1813 1750 c-42 -25 -63 -68 -63 -127 0 -95 63 -159 147 -150 58 6
91 30 115 84 29 66 18 125 -32 175 -33 34 -43 38 -86 38 -31 0 -61 -7 -81 -20z
m137 -5 c75 -39 87 -163 22 -227 -80 -81 -212 -16 -212 105 0 105 99 169 190
122z"/>
<path d="M2067 1763 c-4 -3 -7 -69 -7 -145 0 -178 18 -186 22 -9 l3 129 90
-126 c50 -69 96 -127 103 -130 9 -3 12 29 10 140 l-2 143 -6 -135 -5 -135 -98
138 c-55 75 -100 137 -101 137 -2 0 -6 -3 -9 -7z"/>
<path d="M2370 1732 c-106 -105 -21 -285 122 -258 38 7 85 46 99 83 5 13 9 42
9 64 0 92 -55 149 -144 149 -43 0 -53 -4 -86 -38z m150 15 c91 -46 92 -203 0
-250 -72 -37 -158 3 -180 85 -17 61 10 137 58 162 33 19 89 20 122 3z"/>
<path d="M2642 1624 c1 -82 4 -116 5 -76 l4 72 34 0 c31 0 36 -5 69 -65 20
-35 42 -67 48 -71 11 -7 -21 52 -59 112 -13 20 -12 23 17 32 35 13 55 50 46
86 -8 33 -32 45 -106 53 l-60 6 2 -149z m138 106 c26 -26 25 -46 -5 -75 -19
-20 -34 -25 -75 -25 l-50 0 0 60 0 60 55 0 c42 0 60 -5 75 -20z"/>
<path d="M2850 1625 l0 -145 88 2 87 2 -82 3 -83 4 0 64 0 64 73 4 72 3 -72 2
-73 2 0 60 0 60 75 0 c43 0 75 4 75 10 0 6 -33 10 -80 10 l-80 0 0 -145z"/>
<path d="M1353 1613 c15 -2 39 -2 55 0 15 2 2 4 -28 4 -30 0 -43 -2 -27 -4z"/>
<path d="M1222 1318 c0 -40 3 -59 5 -41 3 25 9 32 30 35 59 7 55 70 -6 76
l-31 3 2 -73z m63 32 c0 -20 -6 -26 -27 -28 -25 -3 -28 0 -28 28 0 28 3 31 28
28 21 -2 27 -8 27 -28z"/>
<path d="M1567 1383 c-4 -3 -6 -34 -6 -67 1 -34 4 -49 6 -33 6 38 36 35 62 -5
11 -18 21 -28 21 -23 0 6 -7 21 -16 33 -14 20 -14 24 0 38 20 19 20 29 0 48
-16 16 -55 22 -67 9z m63 -18 c17 -20 -3 -45 -36 -45 -20 0 -24 5 -24 30 0 25
4 30 24 30 13 0 29 -7 36 -15z"/>
<path d="M1743 1320 c0 -41 2 -58 4 -37 2 20 2 54 0 75 -2 20 -4 3 -4 -38z"/>
<path d="M1853 1383 c-27 -10 -14 -49 23 -66 46 -22 43 -50 -6 -58 -35 -6 -35
-6 -4 -8 60 -2 72 39 19 71 -43 25 -43 50 0 59 26 6 27 7 5 7 -14 0 -31 -2
-37 -5z"/>
<path d="M1412 1353 c-6 -16 -17 -46 -26 -68 -14 -34 -14 -37 -1 -21 8 11 15
23 15 28 0 4 13 8 29 8 21 0 32 -6 36 -21 4 -11 9 -19 11 -16 7 6 -38 117 -46
117 -5 0 -13 -12 -18 -27z m28 -2 c0 -5 3 -16 6 -25 4 -12 0 -16 -16 -16 -16
0 -20 4 -16 16 3 9 6 20 6 25 0 5 5 9 10 9 6 0 10 -4 10 -9z"/>
</g>
</svg>
