<?xml version="1.0" encoding="utf-8"?>
<!-- Generator: Adobe Illustrator 22.1.0, SVG Export Plug-In . SVG Version: 6.00 Build 0)  -->
<svg version="1.1" id="Calque_1" xmlns="http://www.w3.org/2000/svg" xmlns:xlink="http://www.w3.org/1999/xlink" x="0px" y="0px"
	 viewBox="0 0 113 110" style="enable-background:new 0 0 113 110;" xml:space="preserve">
<style type="text/css">
	.st0{fill:#FFFFFF;}
</style>
<g>
	<g>
		<path class="st0" d="M89,60.7c5.4-5.4,10.8-10.8,16.1-16.2c2.6-2.7,2.5-6.7-0.1-9.4c-1.9-2-3.9-3.9-5.8-5.9
			c-1.3-1.3-2.6-1.5-4.2-0.6c-2.1,1.1-4.2,1.5-6.5,1c-6.4-1.5-9.3-8.2-6.1-13.9c0.8-1.5,0.7-2.6-0.5-3.8c-2-2-4-4-6-6
			c-2.8-2.8-6.9-2.8-9.7,0C61,11,55.9,16.2,50.7,21.3c-0.4,0.4-0.4,0.6,0,1c1.9,1.9,3.8,3.8,5.7,5.7c0.4,0.4,0.4,0.6,0,0.9
			c-1,1-2,1.9-2.9,2.9c-0.4,0.4-0.6,0.4-1,0c-1.8-1.9-3.7-3.7-5.5-5.6c-0.5-0.5-0.8-0.5-1.3,0c-7.8,7.8-15.6,15.6-23.4,23.4
			c-5,5-10,10-15,15c-2.7,2.8-2.7,6.9,0,9.6c1.9,1.9,3.9,3.9,5.8,5.8c1.5,1.5,2.4,1.6,4.2,0.6C23.5,77.5,31,82,31,88.9
			c0,1.8-0.6,3.5-1.4,5.1c-0.6,1.3-0.5,2.3,0.5,3.3c2,2,4.1,4.1,6.1,6.1c2.9,2.9,7,2.9,9.9,0c2.4-2.4,4.7-4.7,7.1-7.1
			c10.4-10.3,20.7-20.7,31.1-31c0.5-0.5,0.7-0.8,0-1.4c-1.8-1.7-3.6-3.6-5.4-5.3c-0.6-0.5-0.5-0.8,0-1.3c0.9-0.8,1.8-1.7,2.6-2.6
			c0.4-0.5,0.7-0.5,1.2,0C84.9,56.6,86.9,58.6,89,60.7z"/>
		<path class="st0" d="M89,60.7c-2-2.1-4.1-4.1-6-6.1c-0.5-0.5-0.7-0.5-1.2,0c-0.8,0.9-1.7,1.8-2.6,2.6c-0.5,0.5-0.6,0.8,0,1.3
			c1.8,1.7,3.5,3.6,5.4,5.3c0.6,0.6,0.5,0.9,0,1.4c-10.4,10.3-20.7,20.7-31.1,31c-2.4,2.4-4.7,4.7-7.1,7.1c-3,2.9-7,2.9-9.9,0
			c-2-2-4.1-4.1-6.1-6.1c-1-1-1.2-2-0.5-3.3c0.8-1.6,1.4-3.2,1.4-5.1C31,82,23.5,77.5,17.4,80.7c-1.8,1-2.8,0.8-4.2-0.6
			c-1.9-1.9-3.9-3.9-5.8-5.8c-2.7-2.7-2.7-6.8,0-9.6c5-5,10-10,15-15c7.8-7.8,15.6-15.6,23.4-23.4c0.5-0.5,0.8-0.5,1.3,0
			c1.8,1.9,3.7,3.7,5.5,5.6c0.4,0.4,0.6,0.4,1,0c0.9-1,1.9-2,2.9-2.9c0.4-0.4,0.4-0.6,0-0.9c-1.9-1.9-3.8-3.8-5.7-5.7
			c-0.4-0.4-0.5-0.6,0-1C55.9,16.2,61,11,66.1,5.9c2.8-2.8,6.9-2.8,9.7,0c2,2,4,4,6,6c1.2,1.2,1.3,2.4,0.5,3.8
			c-3.2,5.7-0.3,12.4,6.1,13.9c2.3,0.5,4.5,0.1,6.5-1c1.7-0.9,2.9-0.7,4.2,0.6c2,2,3.9,3.9,5.8,5.9c2.6,2.7,2.7,6.7,0.1,9.4
			C99.8,49.9,94.4,55.2,89,60.7z M63.8,43.2c0.1-0.1,0.2-0.2,0.3-0.2c1.1-1.1,2.2-2.2,3.3-3.3c0.4-0.4,0-0.5-0.2-0.7
			c-2.1-2.1-4.2-4.2-6.3-6.4c-0.3-0.3-0.5-0.4-0.8,0c-1,1-2,2.1-3,3.1c-0.3,0.3-0.4,0.5,0,0.8c2.1,2.1,4.2,4.2,6.4,6.3
			C63.5,43,63.6,43.1,63.8,43.2z M71.3,43.1c-0.1,0.1-0.2,0.1-0.2,0.2c-1.1,1.1-2.2,2.3-3.4,3.4c-0.3,0.3-0.1,0.4,0.1,0.6
			c2.1,2.1,4.3,4.3,6.4,6.4c0.3,0.3,0.5,0.3,0.8,0c1-1.1,2.1-2.1,3.1-3.1c0.3-0.3,0.3-0.5,0-0.8c-2.1-2.1-4.3-4.3-6.4-6.4
			C71.6,43.3,71.4,43.2,71.3,43.1z"/>
		<path class="st0" d="M63.8,43.2c-0.1-0.1-0.3-0.2-0.4-0.4c-2.1-2.1-4.2-4.2-6.4-6.3c-0.4-0.3-0.3-0.5,0-0.8c1-1,2.1-2,3-3.1
			c0.3-0.3,0.5-0.3,0.8,0c2.1,2.1,4.2,4.3,6.3,6.4c0.2,0.2,0.5,0.3,0.2,0.7c-1.1,1.1-2.2,2.2-3.3,3.3C64,43.1,63.9,43.1,63.8,43.2z"
			/>
		<path class="st0" d="M71.3,43.1c0.1,0.1,0.3,0.2,0.4,0.3c2.1,2.1,4.3,4.3,6.4,6.4c0.3,0.3,0.3,0.5,0,0.8c-1.1,1-2.1,2.1-3.1,3.1
			c-0.3,0.3-0.5,0.3-0.8,0c-2.1-2.2-4.3-4.3-6.4-6.4c-0.2-0.2-0.4-0.3-0.1-0.6c1.1-1.1,2.2-2.2,3.4-3.4
			C71.1,43.2,71.2,43.2,71.3,43.1z"/>
	</g>
</g>
</svg>
