<?xml version="1.0" encoding="iso-8859-1"?>
<!-- Generator: Adobe Illustrator 24.1.2, SVG Export Plug-In . SVG Version: 6.00 Build 0)  -->
<svg version="1.1" id="IC&#xD4;NES" xmlns="http://www.w3.org/2000/svg" xmlns:xlink="http://www.w3.org/1999/xlink" x="0px"
	 y="0px" viewBox="0 0 141.732 141.732" enable-background="new 0 0 141.732 141.732" xml:space="preserve">
<g id="PANIER_PLEIN">
	<path display="none" fill="none" stroke="#242422" stroke-width="2.0049" stroke-miterlimit="10" d="M45.396,45.577
		c0,0,0-44.573,25.47-44.573s25.47,44.573,25.47,44.573"/>
	<path fill="#242422" d="M125.6,115.979l-12.863-90.039H29.13l-12.863,90.039c-5.717,25.726,19.294,25.726,19.294,25.726h25.726
		c0,0,19.294,0,45.02,0C132.032,141.704,125.6,115.979,125.6,115.979z M46.398,45.577h-2.005c0-0.103,0.031-9.5,2.448-19.605
		l2.1,0.002C46.461,35.985,46.398,45.375,46.398,45.577z M95.334,45.577c0-0.202-0.063-9.593-2.544-19.604l2.099-0.006
		c2.419,10.107,2.45,19.507,2.45,19.61H95.334z"/>
	<path fill="#242422" d="M92.79,25.973C89.923,14.404,83.827,2.006,70.866,2.006c-12.961,0-19.057,12.398-21.924,23.968l-2.1-0.002
		c0.235-0.981,0.492-1.97,0.774-2.957C51.918,7.96,59.956,0.001,70.866,0.001S89.815,7.96,94.116,23.015
		c0.282,0.985,0.539,1.972,0.773,2.952L92.79,25.973z"/>
</g>
</svg>
