<?xml version="1.0" encoding="UTF-8"?>
<svg width="26px" height="26px" viewBox="0 0 26 26" version="1.1" xmlns="http://www.w3.org/2000/svg" xmlns:xlink="http://www.w3.org/1999/xlink">
    <!-- Generator: Sketch 59.1 (86144) - https://sketch.com -->
    <title>noun_Map_421169 (1)</title>
    <desc>Created with Sketch.</desc>
    <g id="Page-1" stroke="none" stroke-width="1" fill="none" fill-rule="evenodd">
        <g id="HOME-Copy" transform="translate(-858.000000, -56.000000)" fill="#000000" fill-rule="nonzero">
            <g id="Group-5" transform="translate(858.000000, 56.000000)">
                <g id="noun_Map_421169-(1)">
                    <path d="M13,22.2857133 C12.7740288,22.2860711 12.5596215,22.1880564 12.415,22.0182838 C12.0997078,21.6468552 4.64285714,12.8439989 4.64285714,8.17142785 C4.64285714,3.65847287 8.38447745,0 13,0 C17.6155226,0 21.3571429,3.65847287 21.3571429,8.17142785 C21.3571429,12.8439989 13.9002922,21.6468552 13.585,22.0182838 C13.4403785,22.1880564 13.2259712,22.2860711 13,22.2857133 Z M13,1.48571416 C9.22366337,1.48571416 6.16233766,4.47901014 6.16233766,8.17142785 C6.16233766,11.3174276 10.66,17.4905699 13,20.3654268 C15.34,17.4905699 19.8376623,11.3174276 19.8376623,8.17142785 C19.8376623,4.47901014 16.7763366,1.48571416 13,1.48571416 Z" id="Shape"></path>
                    <path d="M13,12.0714286 C10.9486566,12.0714286 9.28571429,10.4084862 9.28571429,8.35714286 C9.28571429,6.3057995 10.9486566,4.64285714 13,4.64285714 C15.0513434,4.64285714 16.7142857,6.3057995 16.7142857,8.35714286 C16.7142857,9.34223268 16.3229603,10.2869758 15.6263966,10.9835395 C14.9298329,11.6801032 13.9850898,12.0714286 13,12.0714286 Z M13,6.12857143 C11.769194,6.12857143 10.7714286,7.12633684 10.7714286,8.35714286 C10.7714286,9.58794887 11.769194,10.5857143 13,10.5857143 C14.230806,10.5857143 15.2285714,9.58794887 15.2285714,8.35714286 C15.2285714,7.12633684 14.230806,6.12857143 13,6.12857143 Z" id="Shape"></path>
                    <path d="M25.2356751,26 L0.764324877,26 C0.499695388,25.9998636 0.253946027,25.8668372 0.114603461,25.6482997 C-0.0247391054,25.4297622 -0.0378683764,25.1567771 0.0798917998,24.9265714 L3.13881058,18.9837143 C3.26794666,18.73127 3.53305016,18.5715782 3.82324366,18.5714286 L6.88216244,18.5714286 C7.30451099,18.5714286 7.64689213,18.904017 7.64689213,19.3142857 C7.64689213,19.7245544 7.30451099,20.0571429 6.88216244,20.0571429 L4.29737607,20.0571429 L2.00318698,24.5142857 L23.996813,24.5142857 L21.7026239,20.0571429 L19.1178376,20.0571429 C18.695489,20.0571429 18.3531079,19.7245544 18.3531079,19.3142857 C18.3531079,18.904017 18.695489,18.5714286 19.1178376,18.5714286 L22.1767563,18.5714286 C22.4669498,18.5715782 22.7320533,18.73127 22.8611894,18.9837143 L25.9201082,24.9265714 C26.0378684,25.1567771 26.0247391,25.4297622 25.8853965,25.6482997 C25.746054,25.8668372 25.5003046,25.9998636 25.2356751,26 L25.2356751,26 Z" id="Path"></path>
                </g>
            </g>
        </g>
    </g>
</svg>