<?xml version="1.0" encoding="UTF-8"?>
<svg width="29px" height="26px" viewBox="0 0 29 26" version="1.1" xmlns="http://www.w3.org/2000/svg" xmlns:xlink="http://www.w3.org/1999/xlink">
    <!-- Generator: Sketch 59.1 (86144) - https://sketch.com -->
    <title>noun_Time_6731</title>
    <desc>Created with Sketch.</desc>
    <g id="Page-1" stroke="none" stroke-width="1" fill="none" fill-rule="evenodd">
        <g id="HOME-Copy" transform="translate(-600.000000, -56.000000)" fill="#000000" fill-rule="nonzero">
            <g id="Group-4" transform="translate(600.000000, 56.000000)">
                <g id="noun_Time_6731">
                    <path d="M15.6388155,0.0056331925 C15.6102994,0.00281659625 15.5817832,0 15.5532671,0 C14.7947381,0 14.2700413,0.606976492 14.2700413,1.35590944 C14.2700413,2.09385765 14.5609058,2.69379266 15.701551,2.70928393 L15.701551,2.71350883 C21.1193303,2.78674033 25.8584258,7.35779439 25.8584258,12.9681725 C25.8584258,18.6236161 21.1564013,23.2904344 15.4306477,23.2904344 C9.96581677,23.2904344 5.42918581,19.2176362 5.02967484,13.8666667 L7.44071355,13.8666667 L3.71964387,7.75662442 L0,13.8669483 L2.28129032,13.8669483 C2.68450839,20.626216 8.40741032,26 15.3850219,26 C22.6249819,26 28.516129,20.1530278 28.516129,13.000845 C28.516129,5.93428664 22.7615742,0.139421514 15.6388155,0.0056331925 Z" id="Path"></path>
                    <path d="M16.7741935,6.21175374 C16.7741935,5.57717946 16.2227732,5.03225806 15.537666,5.03225806 L15.2705954,5.03225806 C14.5854882,5.03225806 14.0461937,5.57717946 14.0461937,6.21175374 L14.0461937,12.9928733 L10.4524123,16.3083488 C9.9219089,16.798638 9.94919193,17.5943073 10.4508965,18.0817948 C10.9541169,18.5748856 11.8359651,18.5748856 12.3664684,18.0817948 L16.3376651,14.4116301 C16.3679795,14.3808119 16.3922311,14.3499937 16.4225456,14.3219772 C16.6408098,14.1132541 16.7738904,13.8302872 16.7738904,13.517903 L16.7738904,6.21175374 L16.7741935,6.21175374 Z" id="Path"></path>
                </g>
            </g>
        </g>
    </g>
</svg>