<?xml version="1.0" encoding="UTF-8"?>
<svg width="30px" height="16px" viewBox="0 0 30 16" version="1.1" xmlns="http://www.w3.org/2000/svg" xmlns:xlink="http://www.w3.org/1999/xlink">
    <!-- Generator: Sketch 59.1 (86144) - https://sketch.com -->
    <title>noun_Trending_690354</title>
    <desc>Created with Sketch.</desc>
    <g id="Page-1" stroke="none" stroke-width="1" fill="none" fill-rule="evenodd">
        <g id="HOME-Copy" transform="translate(-379.000000, -61.000000)" fill="#000000" fill-rule="nonzero">
            <g id="Group-3" transform="translate(379.000000, 58.000000)">
                <g id="noun_Trending_690354" transform="translate(0.000000, 2.000000)">
                    <g id="Group" transform="translate(0.000000, 0.637820)">
                        <path d="M18.6993677,2.27991682 C18.7504031,3.23416857 19.6863416,4.05720995 20.6641042,4.00733786 L23.2703302,4.00733786 L16.8714308,9.51240278 L11.9507516,5.67784031 C11.5948112,5.36117379 11.1095397,5.18701632 10.6281892,5.20323538 C10.2143672,5.2275336 9.81031656,5.39045315 9.50012121,5.65882696 L0.786768605,12.9482922 C-0.0817036969,13.5211835 -0.268044966,14.8653609 0.413152493,15.6429038 C1.09441219,16.420386 2.48394298,16.4493009 3.19850013,15.7006121 L10.7254053,9.3982619 C12.3991159,10.7039266 14.0999001,12.0303056 15.7628434,13.3277089 C16.4447877,13.860751 17.5198287,13.8353594 18.1745749,13.2706081 L26.2655452,6.30382314 L26.2655452,9.47401159 C26.2518528,10.4367677 27.146154,11.3223163 28.1326922,11.3223163 C29.1192304,11.3223163 30.0137805,10.4367677 30,9.47401159 L30,2.18454632 C30,1.23035531 29.1103304,0.36218 28.1326922,0.36218 L20.6641042,0.36218 C19.5963451,0.44764898 18.7052181,1.14482559 18.6993677,2.27943086 L18.6993677,2.27991682 Z" id="Path"></path>
                    </g>
                </g>
            </g>
        </g>
    </g>
</svg>