<?xml version="1.0" encoding="iso-8859-1"?>
<!-- Generator: Adobe Illustrator 24.1.2, SVG Export Plug-In . SVG Version: 6.00 Build 0)  -->
<svg version="1.1" id="IC&#xD4;NES" xmlns="http://www.w3.org/2000/svg" xmlns:xlink="http://www.w3.org/1999/xlink" x="0px"
	 y="0px" viewBox="0 0 141.732 141.732" enable-background="new 0 0 141.732 141.732" xml:space="preserve">
<g id="CONNEXION_R&#xC9;USSIE">
	<g id="SE_CONNECTER_2_">
		<g>
			<circle fill="#242422" cx="70.866" cy="28.338" r="27.338"/>
			<path fill="#242422" d="M70.866,2c14.523,0,26.338,11.815,26.338,26.338S85.389,54.676,70.866,54.676
				S44.528,42.861,44.528,28.338S56.343,2,70.866,2 M70.866,0c-15.65,0-28.338,12.688-28.338,28.338s12.688,28.338,28.338,28.338
				c15.65,0,28.338-12.688,28.338-28.338S86.516,0,70.866,0L70.866,0z"/>
		</g>
	</g>
	<path fill="#242422" stroke="#242422" stroke-width="2" stroke-miterlimit="10" d="M105.874,140.74c-25.413,0-44.47,0-44.47,0
		H35.991c0,0-24.707,0-19.06-25.413L27.713,70.65c1.13-4.682,5.32-7.981,10.137-7.981h0.604c3.113,0,6.14,0.937,8.76,2.618
		c6.824,4.379,14.942,6.918,23.652,6.918s16.828-2.539,23.652-6.918c2.62-1.681,5.647-2.618,8.76-2.618h0.738
		c4.817,0,9.007,3.299,10.137,7.981l10.782,44.678C124.934,115.328,131.287,140.74,105.874,140.74z"/>
</g>
</svg>
